<?xml version="1.0" encoding="UTF-8" standalone="no"?>
<!-- Created with Inkscape (http://www.inkscape.org/) -->

<svg
   width="32"
   height="32"
   viewBox="0 0 32 32"
   version="1.1"
   id="svg461"
   inkscape:version="1.2.2 (b0a8486541, 2022-12-01)"
   sodipodi:docname="checkbox-circle.svg"
   xmlns:inkscape="http://www.inkscape.org/namespaces/inkscape"
   xmlns:sodipodi="http://sodipodi.sourceforge.net/DTD/sodipodi-0.dtd"
   xmlns="http://www.w3.org/2000/svg"
   xmlns:svg="http://www.w3.org/2000/svg">
  <sodipodi:namedview
     id="namedview463"
     pagecolor="#ffffff"
     bordercolor="#000000"
     borderopacity="0.25"
     inkscape:showpageshadow="2"
     inkscape:pageopacity="0.0"
     inkscape:pagecheckerboard="0"
     inkscape:deskcolor="#d1d1d1"
     inkscape:document-units="px"
     showgrid="false"
     inkscape:zoom="3.691907"
     inkscape:cx="11.376235"
     inkscape:cy="18.418665"
     inkscape:window-width="1440"
     inkscape:window-height="831"
     inkscape:window-x="0"
     inkscape:window-y="32"
     inkscape:window-maximized="1"
     inkscape:current-layer="layer1" />
  <defs
     id="defs458" />
  <g
     inkscape:label="Layer 1"
     inkscape:groupmode="layer"
     id="layer1">
    <g
       id="g6"
       transform="matrix(1.5140533,0,0,1.5140533,-2.1686396,-2.1686396)">
      <path
         fill="none"
         d="M 0,0 H 24 V 24 H 0 Z"
         id="path2" />
      <path
         d="M 12,22 C 6.477,22 2,17.523 2,12 2,6.477 6.477,2 12,2 c 5.523,0 10,4.477 10,10 0,5.523 -4.477,10 -10,10 z m 0,-2 a 8,8 0 1 0 0,-16 8,8 0 0 0 0,16 z m -0.997,-4 -4.243,-4.243 1.414,-1.414 2.829,2.829 5.656,-5.657 1.415,1.414 z"
         id="path4" />
    </g>
  </g>
</svg>
